<svg width="19" height="24" viewBox="0 0 19 24" fill="none" xmlns="http://www.w3.org/2000/svg">
<path d="M8.90259 16.7434L12.8537 12.0392L8.90259 7.33502" stroke="black" stroke-width="1.5" stroke-linecap="round" stroke-linejoin="round"/>
<path d="M12.8534 12.0392H1" stroke="black" stroke-width="1.5" stroke-linecap="round" stroke-linejoin="round"/>
<path d="M2.31689 8.90308V4.18634C2.31689 3.35675 2.59296 2.56096 3.08467 1.97318C3.57639 1.3854 4.24368 1.05352 4.94045 1.0502L15.4136 1.00003C15.7596 0.998375 16.1026 1.07791 16.4228 1.23409C16.743 1.39027 17.0342 1.62003 17.2798 1.91025C17.5254 2.20047 17.7205 2.54546 17.8541 2.92551C17.9877 3.30555 18.057 3.71321 18.0583 4.12518L18.1109 19.8513C18.1123 20.2632 18.0456 20.6713 17.9145 21.0524C17.7834 21.4336 17.5905 21.7802 17.3469 22.0726C17.1033 22.365 16.8137 22.5974 16.4946 22.7565C16.1755 22.9156 15.8333 22.9984 15.4874 23H4.95099C4.25238 23 3.58239 22.6696 3.0884 22.0814C2.59441 21.4933 2.31689 20.6956 2.31689 19.8639V15.1753" stroke="black" stroke-width="1.5" stroke-linecap="round" stroke-linejoin="round"/>
</svg>
