<svg width="24" height="24" viewBox="0 0 24 24" fill="none" xmlns="http://www.w3.org/2000/svg">
<path fill-rule="evenodd" clip-rule="evenodd" d="M12 22.8C17.9646 22.8 22.8 17.9646 22.8 12C22.8 6.0354 17.9646 1.2 12 1.2C6.0354 1.2 1.2 6.0354 1.2 12C1.2 17.9646 6.0354 22.8 12 22.8ZM12 24C18.6276 24 24 18.6276 24 12C24 5.3724 18.6276 0 12 0C5.3724 0 0 5.3724 0 12C0 18.6276 5.3724 24 12 24Z" fill="#B31918"/>
<path d="M4.80005 18.978C4.80005 18.3582 5.26325 17.8344 5.88005 17.766C10.509 17.2536 13.512 17.2998 18.1308 17.7774C18.3615 17.8016 18.5801 17.8925 18.7599 18.0389C18.9398 18.1853 19.0731 18.3809 19.1436 18.6019C19.2141 18.8228 19.2188 19.0595 19.157 19.283C19.0952 19.5066 18.9696 19.7073 18.7956 19.8606C13.3446 24.612 10.2294 24.5466 5.18405 19.8654C4.93805 19.6374 4.80005 19.3134 4.80005 18.9786V18.978Z" fill="#B31918"/>
<path fill-rule="evenodd" clip-rule="evenodd" d="M18.069 18.3738C13.4868 17.8998 10.527 17.8554 5.94535 18.3624C5.63695 18.3966 5.39995 18.66 5.39995 18.9786C5.39995 19.1502 5.47135 19.3128 5.59195 19.4256C8.09275 21.7452 9.98755 22.7934 11.8398 22.8C13.6986 22.8066 15.6954 21.7668 18.4014 19.4088C18.4873 19.3323 18.5492 19.2324 18.5795 19.1214C18.6098 19.0104 18.6072 18.8929 18.5719 18.7834C18.5367 18.6738 18.4705 18.5768 18.3812 18.5042C18.2919 18.4316 18.1834 18.3865 18.069 18.3744V18.3738ZM5.81395 17.1696C10.4916 16.6518 13.5384 16.6986 18.1932 17.1804C18.5401 17.2166 18.869 17.3532 19.1396 17.5735C19.4101 17.7937 19.6106 18.0881 19.7164 18.4205C19.8222 18.753 19.8288 19.109 19.7354 19.4452C19.642 19.7813 19.4525 20.0829 19.1904 20.313C16.4454 22.7058 14.1594 24.009 11.8362 24C9.50635 23.9916 7.32115 22.6662 4.77655 20.3052C4.59437 20.1355 4.44913 19.9301 4.34992 19.7017C4.25071 19.4733 4.19966 19.227 4.19995 18.978C4.19908 18.5307 4.36328 18.0987 4.66109 17.7649C4.95891 17.4311 5.36941 17.2189 5.81395 17.169V17.1696Z" fill="#B31918"/>
<path d="M16.8 9.6C16.8 10.873 16.2942 12.0939 15.3941 12.9941C14.4939 13.8943 13.273 14.4 12 14.4C10.7269 14.4 9.50601 13.8943 8.60584 12.9941C7.70566 12.0939 7.19995 10.873 7.19995 9.6C7.19995 8.32696 7.70566 7.10606 8.60584 6.20589C9.50601 5.30571 10.7269 4.8 12 4.8C13.273 4.8 14.4939 5.30571 15.3941 6.20589C16.2942 7.10606 16.8 8.32696 16.8 9.6Z" fill="#B31918"/>
<path fill-rule="evenodd" clip-rule="evenodd" d="M12 13.2C12.9547 13.2 13.8704 12.8207 14.5455 12.1456C15.2207 11.4705 15.6 10.5548 15.6 9.6C15.6 8.64522 15.2207 7.72955 14.5455 7.05441C13.8704 6.37928 12.9547 6 12 6C11.0452 6 10.1295 6.37928 9.45437 7.05441C8.77924 7.72955 8.39995 8.64522 8.39995 9.6C8.39995 10.5548 8.77924 11.4705 9.45437 12.1456C10.1295 12.8207 11.0452 13.2 12 13.2ZM12 14.4C13.273 14.4 14.4939 13.8943 15.3941 12.9941C16.2942 12.0939 16.8 10.873 16.8 9.6C16.8 8.32696 16.2942 7.10606 15.3941 6.20589C14.4939 5.30571 13.273 4.8 12 4.8C10.7269 4.8 9.50601 5.30571 8.60584 6.20589C7.70566 7.10606 7.19995 8.32696 7.19995 9.6C7.19995 10.873 7.70566 12.0939 8.60584 12.9941C9.50601 13.8943 10.7269 14.4 12 14.4Z" fill="#B31918"/>
</svg>
